<?xml version="1.0" encoding="utf-8"?>
<!-- Generator: Adobe Illustrator 20.0.0, SVG Export Plug-In . SVG Version: 6.00 Build 0)  -->
<svg version="1.1" id="Capa_1" xmlns="http://www.w3.org/2000/svg" xmlns:xlink="http://www.w3.org/1999/xlink" x="0px" y="0px"
	 viewBox="0 0 33 33" style="enable-background:new 0 0 33 33;" xml:space="preserve">
<style type="text/css">
	.st0{fill:#FFFFFF;}
</style>
<g>
	<path class="st0" d="M28.3,33H4.7c-0.1,0-0.3-0.1-0.4-0.2s-0.1-0.2-0.1-0.4L5.3,8.9c0-0.3,0.2-0.5,0.5-0.5h21.4
		c0.3,0,0.5,0.2,0.5,0.5l1.1,23.6c0,0.1,0,0.3-0.1,0.4C28.6,32.9,28.4,33,28.3,33z M5.2,32h22.6L26.7,9.4H6.3L5.2,32z"/>
	<path class="st0" d="M21.9,11.4c-0.3,0-0.5-0.2-0.5-0.5v-5c0-2.7-2.2-4.9-4.9-4.9s-4.9,2.2-4.9,4.9v5c0,0.3-0.2,0.5-0.5,0.5
		s-0.5-0.2-0.5-0.5v-5c0-3.3,2.6-5.9,5.9-5.9s5.9,2.6,5.9,5.9v5C22.4,11.2,22.2,11.4,21.9,11.4z"/>
</g>
</svg>
