<?xml version="1.0" encoding="utf-8"?>
<!-- Generator: Adobe Illustrator 20.0.0, SVG Export Plug-In . SVG Version: 6.00 Build 0)  -->
<svg version="1.1" id="Capa_1" xmlns="http://www.w3.org/2000/svg" xmlns:xlink="http://www.w3.org/1999/xlink" x="0px" y="0px"
	 viewBox="0 0 288.9 288.9" style="enable-background:new 0 0 288.9 288.9;" xml:space="preserve">
<style type="text/css">
	.st0{fill:#FFFFFF;}
</style>
<g>
	<path class="st0" d="M167.2,288.9H105V159.3H70.8V99.9H105V66.5C105,35.8,124.2,0,178.3,0c19.1,0,33.1,1.8,33.7,1.9l5.7,0.7
		l-1.4,55.7l-6.3-0.1c0,0-14.2-0.1-29.7-0.1c-11.5,0-13.1,2.8-13.1,14.2v27.6h50.9l-2.8,59.5h-48.1L167.2,288.9L167.2,288.9
		L167.2,288.9z M117.9,276h36.5V146.5H203l1.6-33.8h-50.3V72.2c0-13.4,3.1-27,25.9-27c9.2,0,17.9,0,23.5,0.1l0.8-31.3
		c-5.7-0.5-15.1-1.2-26.2-1.2c-44.5,0-60.4,27.7-60.4,53.6v46.3H83.6v33.8h34.2L117.9,276L117.9,276L117.9,276z"/>
</g>
</svg>
