<?xml version="1.0" encoding="utf-8"?>
<!-- Generator: Adobe Illustrator 20.0.0, SVG Export Plug-In . SVG Version: 6.00 Build 0)  -->
<svg version="1.1" id="Capa_1" xmlns="http://www.w3.org/2000/svg" xmlns:xlink="http://www.w3.org/1999/xlink" x="0px" y="0px"
	 viewBox="0 0 455 455" style="enable-background:new 0 0 455 455;" xml:space="preserve">
<style type="text/css">
	.st0{fill:#FFFFFF;}
</style>
<g>
	<path class="st0" d="M407.5,0h-360C21.3,0,0,21.3,0,47.5v360C0,433.7,21.3,455,47.5,455h360c26.2,0,47.5-21.3,47.5-47.5v-360
		C455,21.3,433.7,0,407.5,0z M440,47.5V140H305.8c-20.8-18.6-48.3-30-78.3-30c-30.1,0-57.5,11.4-78.3,30H125V15h282.5
		C425.4,15,440,29.6,440,47.5z M227.5,125C284,125,330,171,330,227.5S284,330,227.5,330S125,284,125,227.5S171,125,227.5,125z
		 M90,140V15h20v125H90z M55,140V15h20v125H55z M40,15.9V140H15V47.5C15,32.2,25.7,19.3,40,15.9z M407.5,440h-360
		C29.6,440,15,425.4,15,407.5V155h120.1c-15.7,20-25.1,45.2-25.1,72.5c0,64.8,52.7,117.5,117.5,117.5S345,292.3,345,227.5
		c0-27.3-9.4-52.5-25.1-72.5H440v252.5C440,425.4,425.4,440,407.5,440z"/>
	<path class="st0" d="M227.5,305c42.7,0,77.5-34.8,77.5-77.5S270.2,150,227.5,150c-42.7,0-77.5,34.8-77.5,77.5S184.8,305,227.5,305z
		 M227.5,165c34.5,0,62.5,28,62.5,62.5S262,290,227.5,290c-34.5,0-62.5-28-62.5-62.5S193,165,227.5,165z"/>
	<path class="st0" d="M227.5,275C227.5,275,227.5,275,227.5,275c12.7,0,24.6-4.9,33.6-13.9c13.7-13.7,17.7-34.2,10.1-52.1
		c-1.6-3.8-6-5.6-9.8-4c-3.8,1.6-5.6,6-4,9.8c5.2,12.3,2.5,26.3-6.9,35.7c-6.1,6.1-14.3,9.5-23,9.5s-16.9-3.4-23-9.5
		c-2.9-2.9-7.7-2.9-10.6,0c-2.9,2.9-2.9,7.7,0,10.6C202.9,270,214.8,275,227.5,275z"/>
	<path class="st0" d="M337.5,115h30c4.1,0,7.5-3.4,7.5-7.5s-3.4-7.5-7.5-7.5H345V55h55v45h-2.5c-4.1,0-7.5,3.4-7.5,7.5
		s3.4,7.5,7.5,7.5h10c4.1,0,7.5-3.4,7.5-7.5v-60c0-4.1-3.4-7.5-7.5-7.5h-70c-4.1,0-7.5,3.4-7.5,7.5v60
		C330,111.6,333.4,115,337.5,115z"/>
</g>
</svg>
