<svg id="Capa_1" data-name="Capa 1" xmlns="http://www.w3.org/2000/svg" viewBox="0 0 55 58.99"><defs><style>.cls-1{fill:#fff;}</style></defs><title>share</title><path class="cls-1" d="M39.93,41.93a10.14,10.14,0,0,0-1.37,1.71L21.28,33.15a9.89,9.89,0,0,0,0-7.39L38.57,15.35a10.05,10.05,0,1,0-.9-1.79L20.36,24a10,10,0,1,0,0,10.94l17.3,10.5a10,10,0,1,0,2.27-3.5ZM47,2a8,8,0,1,1-8,8A8,8,0,0,1,47,2ZM12,37.46a8,8,0,1,1,8-8A8,8,0,0,1,12,37.46Zm40.66,17.2A8,8,0,1,1,55,49,8,8,0,0,1,52.65,54.66Z" transform="translate(-2)"/></svg>